# xmcd CD database file
#
# Track frame offsets:
#	150
#	11647
#	33506
#	45661
#	61912
#	77594
#	95622
#	103702
#	115243
#	135846
#	152851
#	171618
#	204048
#
# Disc length: 3232 seconds
#
# Revision: 0
# Processed by: cddbd v1.5.1PL0 Copyright (c) Steve Scherf et al.
# Submitted via: CDex 1.51
#
DISCID=a20c9e0d
DTITLE=Bernie Marsden - Big Boy Blue - Disc 2
DYEAR=2003
DGENRE=Blues
TTITLE0=Wiggin's Wail
TTITLE1=Someday After
TTITLE2=Dream On
TTITLE3=Working For The CSA
TTITLE4=I'm Tore Down
TTITLE5=Pick It Up
TTITLE6=Pick It Up Groove
TTITLE7=Do It If You Wanna
TTITLE8=Place In My Heart
TTITLE9=Funny People
TTITLE10=If You Be My Baby
TTITLE11=Place In My Heart
TTITLE12=Funny People
EXTD=YEAR: 2003
EXTT0=
EXTT1=
EXTT2=
EXTT3=
EXTT4=
EXTT5=
EXTT6=
EXTT7=
EXTT8=
EXTT9=
EXTT10=
EXTT11=
EXTT12=
PLAYORDER=
